<svg xmlns="http://www.w3.org/2000/svg" xmlns:xlink="http://www.w3.org/1999/xlink" width="250" height="250" viewBox="0 0 250 250">
  <defs>
    <clipPath id="clip-cat.feli.page-svg">
      <rect width="250" height="250"/>
    </clipPath>
  </defs>
  <g id="cat.feli.page-svg" clip-path="url(#clip-cat.feli.page-svg)">
    <path id="cat" d="M112-554H62a100.745,100.745,0,0,1-20.153-2.032,99.491,99.491,0,0,1-18.771-5.827,100.005,100.005,0,0,1-16.986-9.22,100.725,100.725,0,0,1-14.8-12.211,100.723,100.723,0,0,1-12.211-14.8,100.006,100.006,0,0,1-9.22-16.987,99.491,99.491,0,0,1-5.827-18.771A100.737,100.737,0,0,1-38-654v-75a24.844,24.844,0,0,1,1.965-9.731,24.916,24.916,0,0,1,5.358-7.947,24.915,24.915,0,0,1,7.947-5.358A24.843,24.843,0,0,1-13-754h.013a24.84,24.84,0,0,0,9.717-1.965,24.9,24.9,0,0,0,7.946-5.358,24.914,24.914,0,0,0,5.359-7.946A24.852,24.852,0,0,0,12-779a24.845,24.845,0,0,1,1.965-9.732,24.916,24.916,0,0,1,5.358-7.946,24.916,24.916,0,0,1,7.947-5.357A24.844,24.844,0,0,1,37-804a24.842,24.842,0,0,1,9.731,1.964,24.916,24.916,0,0,1,7.946,5.357,24.915,24.915,0,0,1,5.357,7.946A24.843,24.843,0,0,1,62-779v.013a24.842,24.842,0,0,0,1.965,9.717,24.915,24.915,0,0,0,5.358,7.947,24.915,24.915,0,0,0,7.947,5.358A24.831,24.831,0,0,0,87-754h.013a24.84,24.84,0,0,0,9.717-1.965,24.9,24.9,0,0,0,7.947-5.358,24.912,24.912,0,0,0,5.358-7.946A24.852,24.852,0,0,0,112-779a24.844,24.844,0,0,1,1.965-9.732,24.918,24.918,0,0,1,5.358-7.946,24.919,24.919,0,0,1,7.947-5.357A24.843,24.843,0,0,1,137-804a24.843,24.843,0,0,1,9.731,1.964,24.918,24.918,0,0,1,7.947,5.357,24.918,24.918,0,0,1,5.358,7.946A24.841,24.841,0,0,1,162-779v.013a24.843,24.843,0,0,0,1.965,9.717,24.9,24.9,0,0,0,5.358,7.947,24.913,24.913,0,0,0,7.946,5.358A24.837,24.837,0,0,0,187-754a24.843,24.843,0,0,1,9.731,1.965,24.915,24.915,0,0,1,7.947,5.358,24.917,24.917,0,0,1,5.358,7.947A24.843,24.843,0,0,1,212-729v75a100.738,100.738,0,0,1-2.032,20.154,99.491,99.491,0,0,1-5.827,18.771,100.008,100.008,0,0,1-9.22,16.987,100.725,100.725,0,0,1-12.211,14.8,100.723,100.723,0,0,1-14.8,12.211,100,100,0,0,1-16.986,9.22,99.491,99.491,0,0,1-18.771,5.827A100.745,100.745,0,0,1,112-554Zm25-137.5a12.418,12.418,0,0,0-8.839,3.661A12.418,12.418,0,0,0,124.5-679a12.417,12.417,0,0,0,3.661,8.838A12.419,12.419,0,0,0,137-666.5a12.418,12.418,0,0,0,8.839-3.661A12.417,12.417,0,0,0,149.5-679a12.418,12.418,0,0,0-3.661-8.839A12.418,12.418,0,0,0,137-691.5Zm-100,0a12.418,12.418,0,0,0-8.839,3.661A12.418,12.418,0,0,0,24.5-679a12.417,12.417,0,0,0,3.661,8.838A12.419,12.419,0,0,0,37-666.5a12.418,12.418,0,0,0,8.839-3.661A12.417,12.417,0,0,0,49.5-679a12.418,12.418,0,0,0-3.661-8.839A12.418,12.418,0,0,0,37-691.5Z" transform="translate(38 804)" fill="#f9a828"/>
  </g>
</svg>
