<svg xmlns="http://www.w3.org/2000/svg" xmlns:xlink="http://www.w3.org/1999/xlink" width="1920" height="360" viewBox="0 0 1920 360">
  <defs>
    <linearGradient id="linear-gradient" y1="0.5" x2="1" y2="0.5" gradientUnits="objectBoundingBox">
      <stop offset="0" stop-color="#2563eb"/>
      <stop offset="1" stop-color="#7c3aed"/>
    </linearGradient>
    <linearGradient id="linear-gradient-2" x1="1.389" y1="1" x2="0" y2="1" xlink:href="#linear-gradient"/>
    <linearGradient id="linear-gradient-3" x1="1.298" y1="1" x2="0" y2="1" xlink:href="#linear-gradient"/>
    <linearGradient id="linear-gradient-4" x1="1.843" y1="1" x2="0" y2="1" xlink:href="#linear-gradient"/>
    <linearGradient id="linear-gradient-5" x1="1.828" y1="1" x2="0" y2="1" xlink:href="#linear-gradient"/>
    <radialGradient id="radial-gradient" cx="0" cy="0.5" r="0.5" gradientUnits="objectBoundingBox">
      <stop offset="0" stop-color="#fbd44c"/>
      <stop offset="1" stop-color="#fbbf24"/>
    </radialGradient>
    <linearGradient id="linear-gradient-6" x1="0.749" y1="0" x2="0.36" y2="0.935" xlink:href="#linear-gradient"/>
    <clipPath id="clip-toys">
      <rect width="1920" height="360"/>
    </clipPath>
  </defs>
  <g id="toys" clip-path="url(#clip-toys)">
    <rect width="1920" height="360" fill="#fff"/>
    <g id="Feather_on_a_Stick" data-name="Feather on a Stick" transform="translate(387.397 -173.309)">
      <path id="String" d="M817.108,3365.879s33.831-4.083,41.389-27.84-13.808-62.793,14.7-72.927" transform="translate(-560.597 -3049.167)" fill="none" stroke="#000" stroke-width="6"/>
      <g id="Feather" transform="translate(224.277 461.581) rotate(-155)">
        <ellipse id="Ellipse_1" data-name="Ellipse 1" cx="14.19" cy="73.362" rx="14.19" ry="73.362" transform="matrix(0.996, -0.087, 0.087, 0.996, 0, 2.473)" fill="#7c3aed"/>
        <ellipse id="Ellipse_2" data-name="Ellipse 2" cx="14.19" cy="73.362" rx="14.19" ry="73.362" transform="translate(15.325 0.958)" fill="#4f46e5"/>
        <ellipse id="Ellipse_3" data-name="Ellipse 3" cx="14.19" cy="73.362" rx="14.19" ry="73.362" transform="matrix(0.996, 0.087, -0.087, 0.996, 30.951, 0)" fill="#2563eb"/>
      </g>
      <path id="Stick" d="M0,0,189.863,252.015" transform="translate(306.372 205.309)" fill="none" stroke="#78350f" stroke-linecap="round" stroke-width="16"/>
    </g>
    <g id="Fish" transform="translate(-1113 -1232.002)">
      <path id="Body" d="M141.008-2577.578c-4.845,0-9.91-.18-15.054-.536-4.965-.344-10.139-.86-15.379-1.535-9.9-1.275-20.415-3.165-31.25-5.616-9.959-2.253-20.424-5.034-31.1-8.264-9.7-2.935-19.79-6.3-29.992-10.017-17.141-6.238-34.9-13.541-52.794-21.707-15.794-7.21-28.718-13.749-36.779-17.965L-143-2601.879c0-.01.818-1.552,2-4.16,1.1-2.416,2.748-6.279,4.4-10.968a124.212,124.212,0,0,0,4.4-15.506,86.485,86.485,0,0,0,2-17.776,86.485,86.485,0,0,0-2-17.776,124.212,124.212,0,0,0-4.4-15.506c-1.653-4.689-3.306-8.552-4.4-10.968-1.187-2.618-1.992-4.145-2-4.16l71.656,41.34c8.062-4.216,20.987-10.756,36.78-17.965,17.89-8.166,35.652-15.469,52.794-21.707,10.2-3.713,20.294-7.083,29.992-10.017,10.679-3.231,21.143-6.011,31.1-8.264,10.835-2.451,21.35-4.34,31.25-5.615,5.239-.675,10.413-1.191,15.379-1.535,5.144-.356,10.209-.536,15.054-.536,11.994,0,23.654.514,34.655,1.526a299.349,299.349,0,0,1,30.545,4.357,240.942,240.942,0,0,1,26.712,6.852,200.471,200.471,0,0,1,23.157,9.012,174.172,174.172,0,0,1,19.88,10.839,159.337,159.337,0,0,1,16.879,12.329,153.858,153.858,0,0,1,14.156,13.486c4.142,4.485,11.711,14.308,11.711,14.308s-4.474,5.953-6.832,8.765c-2.452,2.925-5.04,5.788-7.693,8.51-2.751,2.823-5.649,5.576-8.615,8.181-3.07,2.7-6.3,5.313-9.6,7.777-3.409,2.545-6.991,5-10.646,7.3-3.768,2.368-7.722,4.637-11.754,6.744-4.149,2.168-8.5,4.225-12.925,6.115-4.55,1.942-9.313,3.763-14.156,5.411-6.468,2.2-13.291,4.167-20.279,5.844-7.215,1.731-14.813,3.2-22.581,4.375-8.009,1.208-16.427,2.131-25.019,2.744C159.756-2577.9,150.472-2577.578,141.008-2577.578Zm134.22-86.949a8.489,8.489,0,0,0-3.325.671,8.515,8.515,0,0,0-2.716,1.831,8.516,8.516,0,0,0-1.831,2.716,8.49,8.49,0,0,0-.671,3.325,8.489,8.489,0,0,0,.671,3.325,8.513,8.513,0,0,0,1.831,2.715,8.511,8.511,0,0,0,2.716,1.831,8.489,8.489,0,0,0,3.325.671,8.489,8.489,0,0,0,3.325-.671,8.509,8.509,0,0,0,2.716-1.831,8.512,8.512,0,0,0,1.831-2.715,8.489,8.489,0,0,0,.671-3.325,8.49,8.49,0,0,0-.671-3.325,8.513,8.513,0,0,0-1.831-2.716,8.515,8.515,0,0,0-2.716-1.831A8.489,8.489,0,0,0,275.228-2664.528Z" transform="translate(1288 4147.001)" fill="url(#linear-gradient)"/>
      <g id="Scales" transform="translate(1278.271 1458.173)">
        <path id="Scale" d="M13.669,0V27.338A13.669,13.669,0,0,1,13.669,0Z" transform="translate(34.172 0)" fill="url(#linear-gradient-2)"/>
        <path id="Scale-2" data-name="Scale" d="M13.669,0V27.338A13.669,13.669,0,0,1,13.669,0Z" transform="translate(0 38.728)" fill="url(#linear-gradient-3)"/>
        <path id="Scale-3" data-name="Scale" d="M13.669,0V27.338A13.669,13.669,0,0,1,13.669,0Z" transform="translate(73.66 57.333)" fill="url(#linear-gradient-4)"/>
        <path id="Scale-4" data-name="Scale" d="M13.669,0V27.338A13.669,13.669,0,0,1,13.669,0Z" transform="translate(96.821 15.567)" fill="url(#linear-gradient-5)"/>
      </g>
    </g>
    <g id="Table_Tennis_Ball" data-name="Table Tennis Ball" transform="translate(752 -1191)">
      <circle id="Ball" cx="134" cy="134" r="134" transform="translate(196 1283)" fill="url(#radial-gradient)"/>
    </g>
    <g id="Mouse" transform="translate(1280 86)">
      <path id="Tail" d="M366.528-268.032c13.826,7.8,14.1,37.325.553,55.682l-4.839,6.578,3.457,1.53c14.655,6.119,19.494,6.884,43.689,6.731,13.273,0,28.9-.918,34.564-1.989,14.379-2.906,15.761-2.753,16.314.153.691,3.977-3.456,5.507-21.015,8.108-30.97,4.436-56.685,2.448-75.074-5.813l-8.572-3.824-12.167,4.742c-11.061,4.13-13.688,4.589-28.758,4.589-26.96-.153-78.53-9.637-85.3-15.6-3.595-3.365-2.627-8.872,1.383-7.037,13.411,6.425,60,14.685,83.231,14.838,13.273.153,20.6-1.071,30-5.048l3.456-1.377-4.286-5.354c-12.3-15.6-14.517-36.1-5.392-48.951C343.853-268.644,358.232-272.621,366.528-268.032Zm-17.835,7.8c-7.881,4.589-11.337,16.368-8.434,28.3,1.521,6.578,11.337,20.039,14.379,20.039,2.627,0,10.231-9.331,12.3-15.3,4.977-13.156,3.871-28.147-2.212-32.889C361-262.984,353.67-262.984,348.692-260.231Z" transform="translate(157.912 422.958)"/>
      <path id="Body-2" data-name="Body" d="M-143-2480.577H133.33a53.767,53.767,0,0,1-6.538-7.908,53.405,53.405,0,0,1-4.937-9.08,53.138,53.138,0,0,1-3.12-10.037,53.809,53.809,0,0,1-1.088-10.778,53.8,53.8,0,0,1,1.085-10.763,53.147,53.147,0,0,1,3.112-10.024,53.424,53.424,0,0,1,4.924-9.072,53.819,53.819,0,0,1,6.521-7.9,53.816,53.816,0,0,1,7.9-6.521,53.443,53.443,0,0,1,9.072-4.924,53.144,53.144,0,0,1,10.025-3.112,53.8,53.8,0,0,1,10.763-1.085,53.8,53.8,0,0,1,10.763,1.085,53.138,53.138,0,0,1,10.025,3.112,53.433,53.433,0,0,1,9.072,4.924,53.792,53.792,0,0,1,7.9,6.521,53.821,53.821,0,0,1,6.521,7.9,53.424,53.424,0,0,1,4.924,9.072,53.147,53.147,0,0,1,3.112,10.024,53.8,53.8,0,0,1,1.085,10.763,53.809,53.809,0,0,1-1.088,10.778,53.137,53.137,0,0,1-3.12,10.037,53.406,53.406,0,0,1-4.937,9.08,53.8,53.8,0,0,1-6.538,7.908H237.6a131.073,131.073,0,0,0,26.266-20.37,130.761,130.761,0,0,0,20.286-26.311,129.351,129.351,0,0,0,13.075-31.023,130.263,130.263,0,0,0,4.632-34.507,130.882,130.882,0,0,0-2.652-26.243,129.334,129.334,0,0,0-7.6-24.442,130.123,130.123,0,0,0-12.033-22.119,131.191,131.191,0,0,0-15.937-19.271,131.331,131.331,0,0,0-19.315-15.9,130.576,130.576,0,0,0-22.169-12.005,130.042,130.042,0,0,0-24.5-7.587,131.719,131.719,0,0,0-26.3-2.646,131.943,131.943,0,0,0-24.284,2.25,130.1,130.1,0,0,0-22.788,6.477,130.468,130.468,0,0,0-20.883,10.294,131.287,131.287,0,0,0-18.567,13.7L-143-2480.578Zm100.133-60.007a11.032,11.032,0,0,1,4.321.872,11.065,11.065,0,0,1,3.528,2.379,11.062,11.062,0,0,1,2.379,3.529,11.034,11.034,0,0,1,.872,4.321,11.03,11.03,0,0,1-.872,4.321,11.061,11.061,0,0,1-2.379,3.529,11.07,11.07,0,0,1-3.528,2.379,11.03,11.03,0,0,1-4.321.872,11.031,11.031,0,0,1-4.321-.872,11.064,11.064,0,0,1-3.529-2.379,11.06,11.06,0,0,1-2.379-3.529,11.03,11.03,0,0,1-.872-4.321,11.034,11.034,0,0,1,.872-4.321,11.06,11.06,0,0,1,2.379-3.529,11.065,11.065,0,0,1,3.529-2.379A11.033,11.033,0,0,1-42.867-2540.584Z" transform="translate(143 2723)" fill="url(#linear-gradient-6)"/>
    </g>
  </g>
</svg>
